<svg width="16" height="16" viewBox="0 0 16 16" fill="none" xmlns="http://www.w3.org/2000/svg">
<path d="M14 12.461V6.53896C14 5.96516 13.5348 5.5 12.961 5.5H7.03896C6.46516 5.5 6 5.96516 6 6.53896V12.461C6 13.0348 6.46516 13.5 7.03896 13.5H12.961C13.5348 13.5 14 13.0348 14 12.461Z" fill="#8C94AB"/>
<path fill-rule="evenodd" clip-rule="evenodd" d="M5.5 6.53896C5.5 5.68902 6.18902 5 7.03896 5H12.961C13.811 5 14.5 5.68902 14.5 6.53896V12.461C14.5 13.311 13.811 14 12.961 14H7.03896C6.18902 14 5.5 13.311 5.5 12.461V6.53896ZM7.03896 6C6.7413 6 6.5 6.2413 6.5 6.53896V12.461C6.5 12.7587 6.7413 13 7.03896 13H12.961C13.2587 13 13.5 12.7587 13.5 12.461V6.53896C13.5 6.2413 13.2587 6 12.961 6H7.03896Z" fill="#8C94AB"/>
<path fill-rule="evenodd" clip-rule="evenodd" d="M2 3.5C2 2.67157 2.67157 2 3.5 2H9.5C10.3284 2 11 2.67157 11 3.5V3.88095C11 4.15709 10.7761 4.38095 10.5 4.38095C10.2239 4.38095 10 4.15709 10 3.88095V3.5C10 3.22386 9.77614 3 9.5 3H3.5C3.22386 3 3 3.22386 3 3.5V9.5C3 9.77614 3.22386 10 3.5 10H4.5V11H3.5C2.67157 11 2 10.3284 2 9.5V3.5Z" fill="#8C94AB"/>
</svg>
