<svg width="16" height="16" viewBox="0 0 16 16" fill="none" xmlns="http://www.w3.org/2000/svg">
<path fill-rule="evenodd" clip-rule="evenodd" d="M11.5 5H4.5V12C4.5 12.5523 4.94772 13 5.5 13H10.5C11.0523 13 11.5 12.5523 11.5 12V5ZM3.5 4V12C3.5 13.1046 4.39543 14 5.5 14H10.5C11.6046 14 12.5 13.1046 12.5 12V4H3.5Z" fill="#8C94AB"/>
<path fill-rule="evenodd" clip-rule="evenodd" d="M2.5 4.5C2.5 4.22386 2.72386 4 3 4H13C13.2761 4 13.5 4.22386 13.5 4.5C13.5 4.77614 13.2761 5 13 5H3C2.72386 5 2.5 4.77614 2.5 4.5Z" fill="#8C94AB"/>
<path fill-rule="evenodd" clip-rule="evenodd" d="M6.02044 3.03638C6.00094 3.05421 6 3.06701 6 3.07143V4.21428C6 4.49042 5.77614 4.71428 5.5 4.71428C5.22386 4.71428 5 4.49042 5 4.21428V3.07143C5 2.43846 5.5468 2 6.125 2H9.875C10.4532 2 11 2.43846 11 3.07143V4.21428H10V3.07143C10 3.06701 9.99906 3.05421 9.97956 3.03638C9.95931 3.01787 9.92367 3 9.875 3H6.125C6.07633 3 6.04069 3.01787 6.02044 3.03638Z" fill="#8C94AB"/>
<path fill-rule="evenodd" clip-rule="evenodd" d="M6.5 6.28125C6.77614 6.28125 7 6.50511 7 6.78125V10.7188C7 10.9949 6.77614 11.2188 6.5 11.2188C6.22386 11.2188 6 10.9949 6 10.7188V6.78125C6 6.50511 6.22386 6.28125 6.5 6.28125Z" fill="#8C94AB"/>
<path fill-rule="evenodd" clip-rule="evenodd" d="M9.5 6.28125C9.77614 6.28125 10 6.50511 10 6.78125V10.7188C10 10.9949 9.77614 11.2188 9.5 11.2188C9.22386 11.2188 9 10.9949 9 10.7188V6.78125C9 6.50511 9.22386 6.28125 9.5 6.28125Z" fill="#8C94AB"/>
</svg>
